<svg width="34" height="34" viewBox="0 0 34 34" fill="none" xmlns="http://www.w3.org/2000/svg">
<path d="M23.8231 13.0519C23.5617 12.7921 23.2082 12.6462 22.8396 12.6462C22.471 12.6462 22.1174 12.7921 21.8561 13.0519L16.8477 17.9905L11.909 13.0519C11.6477 12.7921 11.2941 12.6462 10.9255 12.6462C10.5569 12.6462 10.2034 12.7921 9.94196 13.0519C9.8112 13.1816 9.70742 13.3359 9.63659 13.5059C9.56576 13.6759 9.5293 13.8582 9.5293 14.0424C9.5293 14.2266 9.56576 14.4089 9.63659 14.5789C9.70742 14.7489 9.8112 14.9032 9.94196 15.0329L15.8572 20.9481C15.9868 21.0789 16.1411 21.1827 16.3111 21.2535C16.4812 21.3243 16.6635 21.3608 16.8477 21.3608C17.0318 21.3608 17.2142 21.3243 17.3842 21.2535C17.5542 21.1827 17.7085 21.0789 17.8382 20.9481L23.8231 15.0329C23.9539 14.9032 24.0577 14.7489 24.1285 14.5789C24.1993 14.4089 24.2358 14.2266 24.2358 14.0424C24.2358 13.8582 24.1993 13.6759 24.1285 13.5059C24.0577 13.3359 23.9539 13.1816 23.8231 13.0519Z" fill="#2564D1"/>
</svg>
