<svg width="27" height="26" viewBox="0 0 27 26" fill="none" xmlns="http://www.w3.org/2000/svg">
<path d="M22.8334 5.66666H18.8334V4.33333C18.8334 3.27246 18.4119 2.25505 17.6618 1.5049C16.9116 0.754756 15.8942 0.333328 14.8334 0.333328H12.1667C11.1058 0.333328 10.0884 0.754756 9.33826 1.5049C8.58811 2.25505 8.16669 3.27246 8.16669 4.33333V5.66666H4.16669C3.10582 5.66666 2.08841 6.08809 1.33826 6.83823C0.588115 7.58838 0.166687 8.6058 0.166687 9.66666V21.6667C0.166687 22.7275 0.588115 23.7449 1.33826 24.4951C2.08841 25.2452 3.10582 25.6667 4.16669 25.6667H22.8334C23.8942 25.6667 24.9116 25.2452 25.6618 24.4951C26.4119 23.7449 26.8334 22.7275 26.8334 21.6667V9.66666C26.8334 8.6058 26.4119 7.58838 25.6618 6.83823C24.9116 6.08809 23.8942 5.66666 22.8334 5.66666ZM10.8334 4.33333C10.8334 3.97971 10.9738 3.64057 11.2239 3.39052C11.4739 3.14047 11.8131 2.99999 12.1667 2.99999H14.8334C15.187 2.99999 15.5261 3.14047 15.7762 3.39052C16.0262 3.64057 16.1667 3.97971 16.1667 4.33333V5.66666H10.8334V4.33333ZM24.1667 21.6667C24.1667 22.0203 24.0262 22.3594 23.7762 22.6095C23.5261 22.8595 23.187 23 22.8334 23H4.16669C3.81307 23 3.47393 22.8595 3.22388 22.6095C2.97383 22.3594 2.83335 22.0203 2.83335 21.6667V14.3333C6.22837 15.6802 9.84761 16.3724 13.5 16.3733C17.1523 16.3711 20.7713 15.6789 24.1667 14.3333V21.6667ZM24.1667 11.4133C20.8045 12.8904 17.1723 13.653 13.5 13.653C9.82775 13.653 6.19549 12.8904 2.83335 11.4133V9.66666C2.83335 9.31304 2.97383 8.9739 3.22388 8.72385C3.47393 8.4738 3.81307 8.33333 4.16669 8.33333H22.8334C23.187 8.33333 23.5261 8.4738 23.7762 8.72385C24.0262 8.9739 24.1667 9.31304 24.1667 9.66666V11.4133Z" fill="#2564D1"/>
</svg>
