<svg width="25" height="30" viewBox="0 0 25 30" fill="none" xmlns="http://www.w3.org/2000/svg">
<path d="M13.4467 22.0533C13.3811 21.993 13.3096 21.9394 13.2333 21.8933C13.1653 21.8406 13.0886 21.8 13.0067 21.7733C12.9273 21.7327 12.8416 21.7057 12.7533 21.6933C12.4979 21.6393 12.2319 21.6673 11.9933 21.7733C11.8279 21.8332 11.6776 21.9288 11.5532 22.0532C11.4288 22.1776 11.3332 22.3279 11.2733 22.4933C11.1987 22.6516 11.1622 22.8251 11.1667 23C11.1645 23.1734 11.1962 23.3455 11.26 23.5067C11.3373 23.666 11.436 23.814 11.5533 23.9467C11.6779 24.0702 11.8257 24.168 11.9881 24.2344C12.1506 24.3007 12.3245 24.3344 12.5 24.3333C12.6749 24.3378 12.8484 24.3013 13.0067 24.2267C13.1682 24.1592 13.3171 24.0644 13.4467 23.9467C13.5702 23.8221 13.668 23.6743 13.7344 23.5119C13.8007 23.3494 13.8343 23.1755 13.8333 23C13.8312 22.8258 13.795 22.6536 13.7267 22.4933C13.6632 22.3297 13.5681 22.1801 13.4467 22.0533V22.0533ZM7.9 16.56C7.83193 16.5072 7.75524 16.4666 7.67333 16.44C7.59568 16.3901 7.50997 16.354 7.42 16.3333C7.24895 16.2935 7.07105 16.2935 6.9 16.3333L6.66 16.4133L6.42 16.5333L6.22 16.6933C5.97004 16.9555 5.83144 17.3044 5.83333 17.6667C5.83232 17.8422 5.86595 18.0161 5.93231 18.1786C5.99866 18.341 6.09642 18.4888 6.22 18.6133C6.3496 18.7311 6.49842 18.8258 6.66 18.8933C6.862 18.9763 7.08129 19.0084 7.2986 18.9868C7.5159 18.9652 7.72458 18.8906 7.90628 18.7694C8.08799 18.6483 8.23716 18.4844 8.34068 18.2921C8.4442 18.0998 8.49891 17.8851 8.5 17.6667C8.49509 17.3137 8.35698 16.9755 8.11333 16.72L7.9 16.56ZM8.11333 22.0533C7.98653 21.932 7.837 21.8368 7.67333 21.7733C7.43197 21.6614 7.16265 21.6243 6.9 21.6667L6.66 21.7467C6.57503 21.7759 6.49433 21.8162 6.42 21.8667C6.35015 21.9159 6.28336 21.9693 6.22 22.0267C6.09861 22.1535 6.00346 22.303 5.94 22.4667C5.86946 22.6263 5.83302 22.7988 5.83302 22.9733C5.83302 23.1478 5.86946 23.3204 5.94 23.48C6.00752 23.6416 6.10223 23.7904 6.22 23.92C6.34237 24.0484 6.48913 24.1511 6.65168 24.2221C6.81423 24.293 6.98931 24.3309 7.16667 24.3333C7.34157 24.3378 7.51509 24.3013 7.67333 24.2267C7.83491 24.1592 7.98373 24.0644 8.11333 23.9467C8.23111 23.8171 8.32581 23.6683 8.39333 23.5067C8.46387 23.3471 8.50031 23.1745 8.50031 23C8.50031 22.8255 8.46387 22.6529 8.39333 22.4933C8.32987 22.3297 8.23472 22.1801 8.11333 22.0533V22.0533ZM11.9933 16.44C11.8297 16.5035 11.6801 16.5986 11.5533 16.72C11.3097 16.9755 11.1716 17.3137 11.1667 17.6667C11.1678 17.8851 11.2225 18.0998 11.326 18.2921C11.4295 18.4844 11.5787 18.6483 11.7604 18.7694C11.9421 18.8906 12.1508 18.9652 12.3681 18.9868C12.5854 19.0084 12.8047 18.9763 13.0067 18.8933C13.1682 18.8258 13.3171 18.7311 13.4467 18.6133C13.5702 18.4888 13.668 18.341 13.7344 18.1786C13.8007 18.0161 13.8343 17.8422 13.8333 17.6667C13.8284 17.3137 13.6903 16.9755 13.4467 16.72C13.2592 16.535 13.0211 16.4097 12.7624 16.3598C12.5038 16.31 12.2361 16.3379 11.9933 16.44V16.44ZM18.78 22.0533C18.6504 21.9356 18.5016 21.8409 18.34 21.7733C18.0972 21.6712 17.8296 21.6433 17.5709 21.6932C17.3123 21.743 17.0742 21.8683 16.8867 22.0533C16.7653 22.1801 16.6701 22.3297 16.6067 22.4933C16.5361 22.6529 16.4997 22.8255 16.4997 23C16.4997 23.1745 16.5361 23.3471 16.6067 23.5067C16.6742 23.6683 16.7689 23.8171 16.8867 23.9467C17.0113 24.0702 17.159 24.168 17.3215 24.2344C17.4839 24.3007 17.6579 24.3344 17.8333 24.3333C18.0082 24.3378 18.1818 24.3013 18.34 24.2267C18.5016 24.1592 18.6504 24.0644 18.78 23.9467C18.965 23.7592 19.0903 23.5211 19.1402 23.2624C19.19 23.0038 19.1621 22.7362 19.06 22.4933C18.9965 22.3297 18.9014 22.1801 18.78 22.0533ZM17.8333 5.66668H7.16667C6.81304 5.66668 6.47391 5.80715 6.22386 6.0572C5.97381 6.30725 5.83333 6.64639 5.83333 7.00001V12.3333C5.83333 12.687 5.97381 13.0261 6.22386 13.2762C6.47391 13.5262 6.81304 13.6667 7.16667 13.6667H17.8333C18.187 13.6667 18.5261 13.5262 18.7761 13.2762C19.0262 13.0261 19.1667 12.687 19.1667 12.3333V7.00001C19.1667 6.64639 19.0262 6.30725 18.7761 6.0572C18.5261 5.80715 18.187 5.66668 17.8333 5.66668ZM16.5 11H8.5V8.33334H16.5V11ZM20.5 0.333344H4.5C3.43913 0.333344 2.42172 0.754771 1.67157 1.50492C0.921428 2.25506 0.5 3.27248 0.5 4.33334V25.6667C0.5 26.7275 0.921428 27.745 1.67157 28.4951C2.42172 29.2452 3.43913 29.6667 4.5 29.6667H20.5C21.5609 29.6667 22.5783 29.2452 23.3284 28.4951C24.0786 27.745 24.5 26.7275 24.5 25.6667V4.33334C24.5 3.27248 24.0786 2.25506 23.3284 1.50492C22.5783 0.754771 21.5609 0.333344 20.5 0.333344V0.333344ZM21.8333 25.6667C21.8333 26.0203 21.6929 26.3594 21.4428 26.6095C21.1928 26.8595 20.8536 27 20.5 27H4.5C4.14638 27 3.80724 26.8595 3.55719 26.6095C3.30714 26.3594 3.16667 26.0203 3.16667 25.6667V4.33334C3.16667 3.97972 3.30714 3.64058 3.55719 3.39053C3.80724 3.14049 4.14638 3.00001 4.5 3.00001H20.5C20.8536 3.00001 21.1928 3.14049 21.4428 3.39053C21.6929 3.64058 21.8333 3.97972 21.8333 4.33334V25.6667ZM18.5667 16.56C18.4986 16.5072 18.4219 16.4666 18.34 16.44C18.2606 16.3994 18.175 16.3724 18.0867 16.36C17.9156 16.3202 17.7377 16.3202 17.5667 16.36L17.3267 16.44L17.0867 16.56L16.8867 16.72C16.643 16.9755 16.5049 17.3137 16.5 17.6667C16.5011 17.8851 16.5558 18.0998 16.6593 18.2921C16.7628 18.4844 16.912 18.6483 17.0937 18.7694C17.2754 18.8906 17.4841 18.9652 17.7014 18.9868C17.9187 19.0084 18.138 18.9763 18.34 18.8933C18.5016 18.8258 18.6504 18.7311 18.78 18.6133C18.9036 18.4888 19.0013 18.341 19.0677 18.1786C19.134 18.0161 19.1677 17.8422 19.1667 17.6667C19.1618 17.3137 19.0236 16.9755 18.78 16.72L18.5667 16.56Z" fill="#2564D1"/>
</svg>
