<svg width="25" height="28" viewBox="0 0 25 28" fill="none" xmlns="http://www.w3.org/2000/svg">
<path d="M23.1667 8.66666L15.1667 1.65333C14.4333 0.997386 13.4839 0.63475 12.5 0.63475C11.5161 0.63475 10.5667 0.997386 9.83334 1.65333L1.83334 8.66666C1.40983 9.04542 1.07187 9.51007 0.841967 10.0297C0.612063 10.5492 0.495488 11.1118 0.500004 11.68V23.3333C0.500004 24.3942 0.921432 25.4116 1.67158 26.1618C2.42172 26.9119 3.43914 27.3333 4.5 27.3333H20.5C21.5609 27.3333 22.5783 26.9119 23.3284 26.1618C24.0786 25.4116 24.5 24.3942 24.5 23.3333V11.6667C24.5026 11.1007 24.3851 10.5407 24.1553 10.0236C23.9254 9.50642 23.5885 9.04393 23.1667 8.66666ZM15.1667 24.6667H9.83334V18C9.83334 17.6464 9.97381 17.3072 10.2239 17.0572C10.4739 16.8071 10.813 16.6667 11.1667 16.6667H13.8333C14.187 16.6667 14.5261 16.8071 14.7761 17.0572C15.0262 17.3072 15.1667 17.6464 15.1667 18V24.6667ZM21.8333 23.3333C21.8333 23.6869 21.6929 24.0261 21.4428 24.2761C21.1928 24.5262 20.8536 24.6667 20.5 24.6667H17.8333V18C17.8333 16.9391 17.4119 15.9217 16.6618 15.1716C15.9116 14.4214 14.8942 14 13.8333 14H11.1667C10.1058 14 9.08839 14.4214 8.33824 15.1716C7.5881 15.9217 7.16667 16.9391 7.16667 18V24.6667H4.5C4.14638 24.6667 3.80724 24.5262 3.5572 24.2761C3.30715 24.0261 3.16667 23.6869 3.16667 23.3333V11.6667C3.16691 11.4773 3.20746 11.2903 3.28563 11.1178C3.36379 10.9454 3.47778 10.7916 3.62 10.6667L11.62 3.66666C11.8633 3.4529 12.1761 3.33501 12.5 3.33501C12.8239 3.33501 13.1367 3.4529 13.38 3.66666L21.38 10.6667C21.5222 10.7916 21.6362 10.9454 21.7144 11.1178C21.7925 11.2903 21.8331 11.4773 21.8333 11.6667V23.3333Z" fill="#2564D1"/>
</svg>
