<svg width="31" height="24" viewBox="0 0 31 24" fill="none" xmlns="http://www.w3.org/2000/svg">
<path d="M26.1666 0.666668H4.83331C3.77245 0.666668 2.75503 1.0881 2.00489 1.83824C1.25474 2.58839 0.833313 3.6058 0.833313 4.66667V22C0.833313 22.3536 0.973789 22.6928 1.22384 22.9428C1.47389 23.1929 1.81302 23.3333 2.16665 23.3333H7.49998C7.71959 23.3322 7.93552 23.2768 8.12858 23.1722C8.32164 23.0675 8.48586 22.9167 8.60665 22.7333L10.8866 19.3333H20.1133L22.3933 22.7333C22.5141 22.9167 22.6783 23.0675 22.8714 23.1722C23.0644 23.2768 23.2804 23.3322 23.5 23.3333H28.8333C29.1869 23.3333 29.5261 23.1929 29.7761 22.9428C30.0262 22.6928 30.1666 22.3536 30.1666 22V4.66667C30.1666 3.6058 29.7452 2.58839 28.9951 1.83824C28.2449 1.0881 27.2275 0.666668 26.1666 0.666668ZM27.5 20.6667H24.22L21.94 17.3333C21.8271 17.1375 21.6664 16.9736 21.4728 16.857C21.2792 16.7404 21.0592 16.6749 20.8333 16.6667H10.1666C9.94704 16.6678 9.73111 16.7232 9.53804 16.8278C9.34498 16.9325 9.18076 17.0833 9.05998 17.2667L6.77998 20.6667H3.49998V14H27.5V20.6667ZM8.83331 11.3333V10C8.83331 9.64638 8.97379 9.30724 9.22384 9.05719C9.47389 8.80714 9.81302 8.66667 10.1666 8.66667H12.8333C13.1869 8.66667 13.5261 8.80714 13.7761 9.05719C14.0262 9.30724 14.1666 9.64638 14.1666 10V11.3333H8.83331ZM16.8333 11.3333V10C16.8333 9.64638 16.9738 9.30724 17.2238 9.05719C17.4739 8.80714 17.813 8.66667 18.1666 8.66667H20.8333C21.1869 8.66667 21.5261 8.80714 21.7761 9.05719C22.0262 9.30724 22.1666 9.64638 22.1666 10V11.3333H16.8333ZM27.5 11.3333H24.8333V10C24.8333 8.93914 24.4119 7.92172 23.6617 7.17157C22.9116 6.42143 21.8942 6 20.8333 6H18.1666C17.1799 6.00588 16.2302 6.37628 15.5 7.04C14.7698 6.37628 13.8201 6.00588 12.8333 6H10.1666C9.10578 6 8.08836 6.42143 7.33822 7.17157C6.58807 7.92172 6.16665 8.93914 6.16665 10V11.3333H3.49998V4.66667C3.49998 4.31305 3.64046 3.97391 3.8905 3.72386C4.14055 3.47381 4.47969 3.33333 4.83331 3.33333H26.1666C26.5203 3.33333 26.8594 3.47381 27.1095 3.72386C27.3595 3.97391 27.5 4.31305 27.5 4.66667V11.3333Z" fill="#2564D1"/>
</svg>
