<svg width="27" height="24" viewBox="0 0 27 24" fill="none" xmlns="http://www.w3.org/2000/svg">
<path d="M24.396 2.50543C22.9826 1.08837 21.1091 0.223482 19.1138 0.0669889C17.1185 -0.0895046 15.133 0.472717 13.516 1.6521C11.8196 0.390279 9.708 -0.181889 7.60657 0.050812C5.50514 0.283513 3.56993 1.3038 2.19064 2.90621C0.811355 4.50862 0.0904425 6.57412 0.173081 8.68678C0.255719 10.7994 1.13577 12.8023 2.63601 14.2921L10.916 22.5854C11.6094 23.2678 12.5432 23.6502 13.516 23.6502C14.4888 23.6502 15.4227 23.2678 16.116 22.5854L24.396 14.2921C25.9528 12.7258 26.8266 10.6071 26.8266 8.39876C26.8266 6.1904 25.9528 4.07174 24.396 2.50543V2.50543ZM22.516 12.4521L14.236 20.7321C14.1418 20.8272 14.0296 20.9028 13.9061 20.9543C13.7825 21.0058 13.6499 21.0324 13.516 21.0324C13.3821 21.0324 13.2495 21.0058 13.126 20.9543C13.0024 20.9028 12.8902 20.8272 12.796 20.7321L4.51601 12.4121C3.47036 11.3432 2.88483 9.90738 2.88483 8.4121C2.88483 6.91681 3.47036 5.48097 4.51601 4.4121C5.58155 3.36008 7.01864 2.77019 8.51601 2.77019C10.0134 2.77019 11.4505 3.36008 12.516 4.4121C12.64 4.53707 12.7874 4.63626 12.9499 4.70395C13.1124 4.77164 13.2867 4.80649 13.4627 4.80649C13.6387 4.80649 13.813 4.77164 13.9754 4.70395C14.1379 4.63626 14.2854 4.53707 14.4093 4.4121C15.4749 3.36008 16.912 2.77019 18.4093 2.77019C19.9067 2.77019 21.3438 3.36008 22.4093 4.4121C23.4694 5.46696 24.0741 6.89502 24.0941 8.39034C24.114 9.88567 23.5475 11.3293 22.516 12.4121V12.4521Z" fill="#2564D1"/>
</svg>
