<svg width="24" height="30" viewBox="0 0 24 30" fill="none" xmlns="http://www.w3.org/2000/svg">
<path d="M20.625 16.6717V12.1667C20.623 10.1594 19.9107 8.21767 18.6142 6.68527C17.3178 5.15287 15.5208 4.12872 13.5417 3.79418V2.25001C13.5417 1.87429 13.3924 1.51395 13.1267 1.24828C12.8611 0.982599 12.5007 0.833344 12.125 0.833344C11.7493 0.833344 11.3889 0.982599 11.1233 1.24828C10.8576 1.51395 10.7083 1.87429 10.7083 2.25001V3.79418C8.72917 4.12872 6.93225 5.15287 5.6358 6.68527C4.33935 8.21767 3.62704 10.1594 3.62501 12.1667V16.6717C2.79831 16.964 2.08225 17.5048 1.575 18.22C1.06775 18.9352 0.794136 19.7898 0.791672 20.6667V23.5C0.791672 23.8757 0.940928 24.2361 1.2066 24.5017C1.47228 24.7674 1.83262 24.9167 2.20834 24.9167H6.65667C6.98291 26.1171 7.69509 27.1769 8.68335 27.9324C9.67161 28.6879 10.881 29.0973 12.125 29.0973C13.369 29.0973 14.5784 28.6879 15.5667 27.9324C16.5549 27.1769 17.2671 26.1171 17.5933 24.9167H22.0417C22.4174 24.9167 22.7777 24.7674 23.0434 24.5017C23.3091 24.2361 23.4583 23.8757 23.4583 23.5V20.6667C23.4559 19.7898 23.1823 18.9352 22.675 18.22C22.1678 17.5048 21.4517 16.964 20.625 16.6717V16.6717ZM6.45834 12.1667C6.45834 10.6638 7.05536 9.22244 8.11807 8.15974C9.18077 7.09703 10.6221 6.50001 12.125 6.50001C13.6279 6.50001 15.0692 7.09703 16.1319 8.15974C17.1947 9.22244 17.7917 10.6638 17.7917 12.1667V16.4167H6.45834V12.1667ZM12.125 26.3333C11.6306 26.3304 11.1455 26.198 10.718 25.9495C10.2905 25.701 9.93556 25.3449 9.68834 24.9167H14.5617C14.3144 25.3449 13.9595 25.701 13.532 25.9495C13.1045 26.198 12.6195 26.3304 12.125 26.3333ZM20.625 22.0833H3.62501V20.6667C3.62501 20.291 3.77426 19.9306 4.03994 19.6649C4.30561 19.3993 4.66595 19.25 5.04167 19.25H19.2083C19.5841 19.25 19.9444 19.3993 20.2101 19.6649C20.4758 19.9306 20.625 20.291 20.625 20.6667V22.0833Z" fill="#16193B"/>
</svg>
