<svg width="27" height="28" viewBox="0 0 27 28" fill="none" xmlns="http://www.w3.org/2000/svg">
<path d="M26.8333 7.65333C26.8343 7.47786 26.8007 7.30391 26.7343 7.14146C26.668 6.97901 26.5702 6.83125 26.4466 6.70667L20.7933 1.05333C20.6687 0.929759 20.521 0.831992 20.3585 0.765639C20.1961 0.699286 20.0221 0.665653 19.8466 0.666667C19.6712 0.665653 19.4972 0.699286 19.3348 0.765639C19.1723 0.831992 19.0246 0.929759 18.9 1.05333L15.1266 4.82667L0.553315 19.4C0.42974 19.5246 0.331973 19.6723 0.26562 19.8348C0.199267 19.9972 0.165634 20.1712 0.166648 20.3467V26C0.166648 26.3536 0.307124 26.6928 0.557172 26.9428C0.807221 27.1929 1.14636 27.3333 1.49998 27.3333H7.15331C7.33988 27.3435 7.52651 27.3143 7.70107 27.2477C7.87564 27.1811 8.03426 27.0785 8.16665 26.9467L22.66 12.3733L26.4466 8.66667C26.5683 8.53744 26.6675 8.38871 26.74 8.22667C26.7528 8.12039 26.7528 8.01295 26.74 7.90667C26.7462 7.8446 26.7462 7.78207 26.74 7.72L26.8333 7.65333ZM6.60665 24.6667H2.83331V20.8933L16.0733 7.65333L19.8466 11.4267L6.60665 24.6667ZM21.7266 9.54667L17.9533 5.77333L19.8466 3.89333L23.6066 7.65333L21.7266 9.54667Z" fill="#2564D1"/>
</svg>
