<svg width="30" height="30" viewBox="0 0 30 30" fill="none" xmlns="http://www.w3.org/2000/svg">
<path d="M28.8808 26.7442L23.625 21.5308C25.6651 18.9871 26.6531 15.7583 26.3858 12.5085C26.1185 9.25866 24.6162 6.23476 22.1878 4.05857C19.7594 1.88237 16.5896 0.719293 13.33 0.808486C10.0704 0.89768 6.96886 2.23237 4.66312 4.5381C2.35738 6.84384 1.02269 9.94537 0.9335 13.205C0.844306 16.4645 2.00738 19.6344 4.18358 22.0628C6.35978 24.4912 9.38368 25.9935 12.6335 26.2608C15.8833 26.5281 19.1121 25.5401 21.6558 23.5L26.8692 28.7133C27.0009 28.8461 27.1575 28.9515 27.3302 29.0234C27.5028 29.0953 27.688 29.1324 27.875 29.1324C28.062 29.1324 28.2472 29.0953 28.4198 29.0234C28.5925 28.9515 28.7491 28.8461 28.8808 28.7133C29.1362 28.4492 29.2789 28.0961 29.2789 27.7287C29.2789 27.3613 29.1362 27.0083 28.8808 26.7442ZM13.7083 23.5C11.747 23.5 9.82972 22.9184 8.19893 21.8287C6.56814 20.7391 5.2971 19.1903 4.54653 17.3783C3.79596 15.5662 3.59958 13.5723 3.98221 11.6487C4.36485 9.72503 5.30932 7.95805 6.69619 6.57118C8.08306 5.18431 9.85004 4.23984 11.7737 3.8572C13.6973 3.47456 15.6912 3.67095 17.5033 4.42151C19.3153 5.17208 20.8641 6.44313 21.9537 8.07392C23.0434 9.7047 23.625 11.622 23.625 13.5833C23.625 16.2134 22.5802 18.7357 20.7205 20.5955C18.8607 22.4552 16.3384 23.5 13.7083 23.5Z" fill="#16193B"/>
</svg>
