<svg width="8" height="8" viewBox="0 0 8 8" fill="none" xmlns="http://www.w3.org/2000/svg">
<path d="M7.71875 3.10423C7.6829 2.99298 7.61696 2.89382 7.52823 2.81773C7.43951 2.74164 7.33145 2.69159 7.21604 2.67311L5.40496 2.37878L4.5654 0.747312C4.51192 0.64345 4.43086 0.556325 4.33113 0.495498C4.23139 0.434671 4.11683 0.402493 4 0.402493C3.88318 0.402493 3.76862 0.434671 3.66888 0.495498C3.56915 0.556325 3.48809 0.64345 3.43461 0.747312L2.59505 2.37878L0.784005 2.67311C0.668703 2.69188 0.560798 2.74204 0.47213 2.8181C0.383461 2.89415 0.317456 2.99316 0.281356 3.10426C0.245256 3.21537 0.240456 3.33426 0.267482 3.44791C0.294509 3.56156 0.352318 3.66557 0.434567 3.74853L1.72675 5.05116L1.44707 6.86452C1.42912 6.98001 1.44337 7.09822 1.48826 7.20615C1.53315 7.31407 1.60693 7.40752 1.70149 7.47622C1.79605 7.54493 1.90773 7.58622 2.02424 7.59556C2.14075 7.6049 2.25758 7.58193 2.36188 7.52917L4 6.70277L5.63818 7.52917C5.74249 7.58182 5.85928 7.60471 5.97575 7.59532C6.09222 7.58593 6.20384 7.54463 6.29837 7.47595C6.3929 7.40727 6.46667 7.31387 6.51159 7.20601C6.55651 7.09814 6.57083 6.97999 6.55299 6.86452L6.2733 5.05116L7.56549 3.74853C7.648 3.66574 7.70599 3.56172 7.73304 3.44801C7.76009 3.33429 7.75514 3.21531 7.71875 3.10423ZM7.21047 3.39642L5.74063 4.87812L6.05882 6.94078C6.06276 6.96548 6.05979 6.9908 6.05023 7.01391C6.04067 7.03703 6.0249 7.05705 6.00466 7.07175C5.98442 7.08646 5.96051 7.09527 5.93557 7.09722C5.91063 7.09916 5.88564 7.09417 5.86336 7.08278L4 6.14275L2.13663 7.08281C2.11436 7.0942 2.08936 7.09919 2.06442 7.09725C2.03948 7.0953 2.01557 7.08649 1.99533 7.07178C1.97509 7.05708 1.95932 7.03706 1.94976 7.01394C1.9402 6.99083 1.93723 6.96552 1.94118 6.94081L2.25938 4.87812L0.789552 3.39641C0.771999 3.37867 0.759666 3.35645 0.753903 3.33217C0.74814 3.3079 0.74917 3.2825 0.75688 3.25877C0.76459 3.23504 0.778683 3.21389 0.797614 3.19764C0.816545 3.18138 0.839584 3.17065 0.864208 3.16662L2.92422 2.83184L3.87921 0.976108C3.89063 0.953911 3.90794 0.935289 3.92925 0.922287C3.95056 0.909285 3.97504 0.902407 4 0.902407C4.02497 0.902407 4.04945 0.909285 4.07076 0.922287C4.09207 0.935289 4.10938 0.953911 4.1208 0.976108L5.07579 2.83184L7.1358 3.16662C7.16043 3.17065 7.18347 3.18138 7.2024 3.19764C7.22133 3.21389 7.23542 3.23504 7.24313 3.25877C7.25084 3.2825 7.25187 3.3079 7.24611 3.33217C7.24034 3.35645 7.22801 3.37867 7.21046 3.39641L7.21047 3.39642Z" fill="#D0D0D0"/>
</svg>
