<svg width="33" height="32" viewBox="0 0 33 32" fill="none" xmlns="http://www.w3.org/2000/svg">
<path d="M12.5 13.3333C12.1464 13.3333 11.8073 13.4738 11.5572 13.7239C11.3072 13.9739 11.1667 14.313 11.1667 14.6667V17.3333C11.1667 17.687 11.3072 18.0261 11.5572 18.2761C11.8073 18.5262 12.1464 18.6667 12.5 18.6667C12.8536 18.6667 13.1928 18.5262 13.4428 18.2761C13.6929 18.0261 13.8334 17.687 13.8334 17.3333V14.6667C13.8334 14.313 13.6929 13.9739 13.4428 13.7239C13.1928 13.4738 12.8536 13.3333 12.5 13.3333ZM28.5 14.6667C28.8536 14.6667 29.1928 14.5262 29.4428 14.2761C29.6929 14.0261 29.8334 13.687 29.8334 13.3333V8.00001C29.8334 7.64638 29.6929 7.30724 29.4428 7.0572C29.1928 6.80715 28.8536 6.66667 28.5 6.66667H4.50002C4.1464 6.66667 3.80726 6.80715 3.55721 7.0572C3.30716 7.30724 3.16669 7.64638 3.16669 8.00001V13.3333C3.16669 13.687 3.30716 14.0261 3.55721 14.2761C3.80726 14.5262 4.1464 14.6667 4.50002 14.6667C4.85364 14.6667 5.19278 14.8071 5.44283 15.0572C5.69288 15.3072 5.83335 15.6464 5.83335 16C5.83335 16.3536 5.69288 16.6928 5.44283 16.9428C5.19278 17.1929 4.85364 17.3333 4.50002 17.3333C4.1464 17.3333 3.80726 17.4738 3.55721 17.7239C3.30716 17.9739 3.16669 18.3131 3.16669 18.6667V24C3.16669 24.3536 3.30716 24.6928 3.55721 24.9428C3.80726 25.1929 4.1464 25.3333 4.50002 25.3333H28.5C28.8536 25.3333 29.1928 25.1929 29.4428 24.9428C29.6929 24.6928 29.8334 24.3536 29.8334 24V18.6667C29.8334 18.3131 29.6929 17.9739 29.4428 17.7239C29.1928 17.4738 28.8536 17.3333 28.5 17.3333C28.1464 17.3333 27.8073 17.1929 27.5572 16.9428C27.3072 16.6928 27.1667 16.3536 27.1667 16C27.1667 15.6464 27.3072 15.3072 27.5572 15.0572C27.8073 14.8071 28.1464 14.6667 28.5 14.6667ZM27.1667 12.24C26.3945 12.5203 25.7273 13.0315 25.2558 13.7042C24.7843 14.3769 24.5314 15.1785 24.5314 16C24.5314 16.8215 24.7843 17.6231 25.2558 18.2958C25.7273 18.9685 26.3945 19.4797 27.1667 19.76V22.6667H13.8334C13.8334 22.3131 13.6929 21.9739 13.4428 21.7239C13.1928 21.4738 12.8536 21.3333 12.5 21.3333C12.1464 21.3333 11.8073 21.4738 11.5572 21.7239C11.3072 21.9739 11.1667 22.3131 11.1667 22.6667H5.83335V19.76C6.60556 19.4797 7.27274 18.9685 7.74423 18.2958C8.21572 17.6231 8.46866 16.8215 8.46866 16C8.46866 15.1785 8.21572 14.3769 7.74423 13.7042C7.27274 13.0315 6.60556 12.5203 5.83335 12.24V9.33334H11.1667C11.1667 9.68696 11.3072 10.0261 11.5572 10.2761C11.8073 10.5262 12.1464 10.6667 12.5 10.6667C12.8536 10.6667 13.1928 10.5262 13.4428 10.2761C13.6929 10.0261 13.8334 9.68696 13.8334 9.33334H27.1667V12.24Z" fill="#2564D1"/>
</svg>
